<mxfile host="app.diagrams.net" modified="2024-03-11T11:21:11.595Z" agent="Mozilla/5.0 (Windows NT 10.0; Win64; x64) AppleWebKit/537.36 (KHTML, like Gecko) Chrome/122.0.0.0 Safari/537.36" etag="uOYlWhmBauG6-r7ANBvt" version="24.0.4" type="google">
  <diagram name="Page-1" id="V7DpWueC1KGY2AsXtnhm">
    <mxGraphModel dx="1050" dy="1803" grid="1" gridSize="10" guides="1" tooltips="1" connect="1" arrows="1" fold="1" page="1" pageScale="1" pageWidth="827" pageHeight="1169" math="0" shadow="0">
      <root>
        <mxCell id="0" />
        <mxCell id="1" parent="0" />
        <mxCell id="AyH1_v-APNxJxDEJj7M3-41" value="members" style="swimlane;fontStyle=0;childLayout=stackLayout;horizontal=1;startSize=30;horizontalStack=0;resizeParent=1;resizeParentMax=0;resizeLast=0;collapsible=1;marginBottom=0;whiteSpace=wrap;html=1;labelBackgroundColor=default;labelBorderColor=none;swimlaneLine=1;" parent="1" vertex="1">
          <mxGeometry x="570" y="-1160" width="140" height="240" as="geometry" />
        </mxCell>
        <mxCell id="AyH1_v-APNxJxDEJj7M3-42" value="&lt;u&gt;mail&lt;/u&gt;" style="text;strokeColor=none;fillColor=none;align=left;verticalAlign=middle;spacingLeft=4;spacingRight=4;overflow=hidden;points=[[0,0.5],[1,0.5]];portConstraint=eastwest;rotatable=0;whiteSpace=wrap;html=1;labelBackgroundColor=default;labelBorderColor=none;swimlaneLine=1;" parent="AyH1_v-APNxJxDEJj7M3-41" vertex="1">
          <mxGeometry y="30" width="140" height="30" as="geometry" />
        </mxCell>
        <mxCell id="AyH1_v-APNxJxDEJj7M3-43" value="lastname" style="text;strokeColor=none;fillColor=none;align=left;verticalAlign=middle;spacingLeft=4;spacingRight=4;overflow=hidden;points=[[0,0.5],[1,0.5]];portConstraint=eastwest;rotatable=0;whiteSpace=wrap;html=1;labelBackgroundColor=default;labelBorderColor=none;swimlaneLine=1;" parent="AyH1_v-APNxJxDEJj7M3-41" vertex="1">
          <mxGeometry y="60" width="140" height="30" as="geometry" />
        </mxCell>
        <mxCell id="11gIfrUc3GaYYkoTUjvH-1" value="firstname" style="text;strokeColor=none;fillColor=none;align=left;verticalAlign=middle;spacingLeft=4;spacingRight=4;overflow=hidden;points=[[0,0.5],[1,0.5]];portConstraint=eastwest;rotatable=0;whiteSpace=wrap;html=1;labelBackgroundColor=default;labelBorderColor=none;swimlaneLine=1;" parent="AyH1_v-APNxJxDEJj7M3-41" vertex="1">
          <mxGeometry y="90" width="140" height="30" as="geometry" />
        </mxCell>
        <mxCell id="AyH1_v-APNxJxDEJj7M3-44" value="password" style="text;strokeColor=none;fillColor=none;align=left;verticalAlign=middle;spacingLeft=4;spacingRight=4;overflow=hidden;points=[[0,0.5],[1,0.5]];portConstraint=eastwest;rotatable=0;whiteSpace=wrap;html=1;labelBackgroundColor=default;labelBorderColor=none;swimlaneLine=1;" parent="AyH1_v-APNxJxDEJj7M3-41" vertex="1">
          <mxGeometry y="120" width="140" height="30" as="geometry" />
        </mxCell>
        <mxCell id="AyH1_v-APNxJxDEJj7M3-45" value="role" style="text;strokeColor=none;fillColor=none;align=left;verticalAlign=middle;spacingLeft=4;spacingRight=4;overflow=hidden;points=[[0,0.5],[1,0.5]];portConstraint=eastwest;rotatable=0;whiteSpace=wrap;html=1;labelBackgroundColor=default;labelBorderColor=none;swimlaneLine=1;" parent="AyH1_v-APNxJxDEJj7M3-41" vertex="1">
          <mxGeometry y="150" width="140" height="30" as="geometry" />
        </mxCell>
        <mxCell id="11gIfrUc3GaYYkoTUjvH-2" value="club_register" style="text;strokeColor=none;fillColor=none;align=left;verticalAlign=middle;spacingLeft=4;spacingRight=4;overflow=hidden;points=[[0,0.5],[1,0.5]];portConstraint=eastwest;rotatable=0;whiteSpace=wrap;html=1;labelBackgroundColor=default;labelBorderColor=none;swimlaneLine=1;" parent="AyH1_v-APNxJxDEJj7M3-41" vertex="1">
          <mxGeometry y="180" width="140" height="30" as="geometry" />
        </mxCell>
        <mxCell id="11gIfrUc3GaYYkoTUjvH-3" value="birthdate" style="text;strokeColor=none;fillColor=none;align=left;verticalAlign=middle;spacingLeft=4;spacingRight=4;overflow=hidden;points=[[0,0.5],[1,0.5]];portConstraint=eastwest;rotatable=0;whiteSpace=wrap;html=1;labelBackgroundColor=default;labelBorderColor=none;swimlaneLine=1;" parent="AyH1_v-APNxJxDEJj7M3-41" vertex="1">
          <mxGeometry y="210" width="140" height="30" as="geometry" />
        </mxCell>
        <mxCell id="11gIfrUc3GaYYkoTUjvH-4" value="news" style="swimlane;fontStyle=0;childLayout=stackLayout;horizontal=1;startSize=30;horizontalStack=0;resizeParent=1;resizeParentMax=0;resizeLast=0;collapsible=1;marginBottom=0;whiteSpace=wrap;html=1;labelBackgroundColor=default;labelBorderColor=none;swimlaneLine=1;" parent="1" vertex="1">
          <mxGeometry x="569" y="-760" width="140" height="180" as="geometry" />
        </mxCell>
        <mxCell id="11gIfrUc3GaYYkoTUjvH-5" value="&lt;u&gt;id&lt;/u&gt;" style="text;strokeColor=none;fillColor=none;align=left;verticalAlign=middle;spacingLeft=4;spacingRight=4;overflow=hidden;points=[[0,0.5],[1,0.5]];portConstraint=eastwest;rotatable=0;whiteSpace=wrap;html=1;labelBackgroundColor=default;labelBorderColor=none;swimlaneLine=1;" parent="11gIfrUc3GaYYkoTUjvH-4" vertex="1">
          <mxGeometry y="30" width="140" height="30" as="geometry" />
        </mxCell>
        <mxCell id="11gIfrUc3GaYYkoTUjvH-6" value="title" style="text;strokeColor=none;fillColor=none;align=left;verticalAlign=middle;spacingLeft=4;spacingRight=4;overflow=hidden;points=[[0,0.5],[1,0.5]];portConstraint=eastwest;rotatable=0;whiteSpace=wrap;html=1;labelBackgroundColor=default;labelBorderColor=none;swimlaneLine=1;" parent="11gIfrUc3GaYYkoTUjvH-4" vertex="1">
          <mxGeometry y="60" width="140" height="30" as="geometry" />
        </mxCell>
        <mxCell id="11gIfrUc3GaYYkoTUjvH-7" value="image" style="text;strokeColor=none;fillColor=none;align=left;verticalAlign=middle;spacingLeft=4;spacingRight=4;overflow=hidden;points=[[0,0.5],[1,0.5]];portConstraint=eastwest;rotatable=0;whiteSpace=wrap;html=1;labelBackgroundColor=default;labelBorderColor=none;swimlaneLine=1;" parent="11gIfrUc3GaYYkoTUjvH-4" vertex="1">
          <mxGeometry y="90" width="140" height="30" as="geometry" />
        </mxCell>
        <mxCell id="11gIfrUc3GaYYkoTUjvH-8" value="content" style="text;strokeColor=none;fillColor=none;align=left;verticalAlign=middle;spacingLeft=4;spacingRight=4;overflow=hidden;points=[[0,0.5],[1,0.5]];portConstraint=eastwest;rotatable=0;whiteSpace=wrap;html=1;labelBackgroundColor=default;labelBorderColor=none;swimlaneLine=1;" parent="11gIfrUc3GaYYkoTUjvH-4" vertex="1">
          <mxGeometry y="120" width="140" height="30" as="geometry" />
        </mxCell>
        <mxCell id="11gIfrUc3GaYYkoTUjvH-9" value="publication_date" style="text;strokeColor=none;fillColor=none;align=left;verticalAlign=middle;spacingLeft=4;spacingRight=4;overflow=hidden;points=[[0,0.5],[1,0.5]];portConstraint=eastwest;rotatable=0;whiteSpace=wrap;html=1;labelBackgroundColor=default;labelBorderColor=none;swimlaneLine=1;" parent="11gIfrUc3GaYYkoTUjvH-4" vertex="1">
          <mxGeometry y="150" width="140" height="30" as="geometry" />
        </mxCell>
        <mxCell id="11gIfrUc3GaYYkoTUjvH-12" value="matches" style="swimlane;fontStyle=0;childLayout=stackLayout;horizontal=1;startSize=30;horizontalStack=0;resizeParent=1;resizeParentMax=0;resizeLast=0;collapsible=1;marginBottom=0;whiteSpace=wrap;html=1;labelBackgroundColor=default;labelBorderColor=none;swimlaneLine=1;" parent="1" vertex="1">
          <mxGeometry x="40" y="-1100" width="140" height="150" as="geometry" />
        </mxCell>
        <mxCell id="11gIfrUc3GaYYkoTUjvH-13" value="&lt;u&gt;id&lt;/u&gt;" style="text;strokeColor=none;fillColor=none;align=left;verticalAlign=middle;spacingLeft=4;spacingRight=4;overflow=hidden;points=[[0,0.5],[1,0.5]];portConstraint=eastwest;rotatable=0;whiteSpace=wrap;html=1;labelBackgroundColor=default;labelBorderColor=none;swimlaneLine=1;" parent="11gIfrUc3GaYYkoTUjvH-12" vertex="1">
          <mxGeometry y="30" width="140" height="30" as="geometry" />
        </mxCell>
        <mxCell id="11gIfrUc3GaYYkoTUjvH-14" value="adversary_score" style="text;strokeColor=none;fillColor=none;align=left;verticalAlign=middle;spacingLeft=4;spacingRight=4;overflow=hidden;points=[[0,0.5],[1,0.5]];portConstraint=eastwest;rotatable=0;whiteSpace=wrap;html=1;labelBackgroundColor=default;labelBorderColor=none;swimlaneLine=1;" parent="11gIfrUc3GaYYkoTUjvH-12" vertex="1">
          <mxGeometry y="60" width="140" height="30" as="geometry" />
        </mxCell>
        <mxCell id="11gIfrUc3GaYYkoTUjvH-15" value="hcc_score" style="text;strokeColor=none;fillColor=none;align=left;verticalAlign=middle;spacingLeft=4;spacingRight=4;overflow=hidden;points=[[0,0.5],[1,0.5]];portConstraint=eastwest;rotatable=0;whiteSpace=wrap;html=1;labelBackgroundColor=default;labelBorderColor=none;swimlaneLine=1;" parent="11gIfrUc3GaYYkoTUjvH-12" vertex="1">
          <mxGeometry y="90" width="140" height="30" as="geometry" />
        </mxCell>
        <mxCell id="11gIfrUc3GaYYkoTUjvH-16" value="start_date" style="text;strokeColor=none;fillColor=none;align=left;verticalAlign=middle;spacingLeft=4;spacingRight=4;overflow=hidden;points=[[0,0.5],[1,0.5]];portConstraint=eastwest;rotatable=0;whiteSpace=wrap;html=1;labelBackgroundColor=default;labelBorderColor=none;swimlaneLine=1;" parent="11gIfrUc3GaYYkoTUjvH-12" vertex="1">
          <mxGeometry y="120" width="140" height="30" as="geometry" />
        </mxCell>
        <mxCell id="11gIfrUc3GaYYkoTUjvH-18" value="adversary_teams" style="swimlane;fontStyle=0;childLayout=stackLayout;horizontal=1;startSize=30;horizontalStack=0;resizeParent=1;resizeParentMax=0;resizeLast=0;collapsible=1;marginBottom=0;whiteSpace=wrap;html=1;labelBackgroundColor=default;labelBorderColor=none;swimlaneLine=1;" parent="1" vertex="1">
          <mxGeometry x="50" y="-760" width="140" height="120" as="geometry" />
        </mxCell>
        <mxCell id="11gIfrUc3GaYYkoTUjvH-19" value="&lt;u&gt;id&lt;/u&gt;" style="text;strokeColor=none;fillColor=none;align=left;verticalAlign=middle;spacingLeft=4;spacingRight=4;overflow=hidden;points=[[0,0.5],[1,0.5]];portConstraint=eastwest;rotatable=0;whiteSpace=wrap;html=1;labelBackgroundColor=default;labelBorderColor=none;swimlaneLine=1;" parent="11gIfrUc3GaYYkoTUjvH-18" vertex="1">
          <mxGeometry y="30" width="140" height="30" as="geometry" />
        </mxCell>
        <mxCell id="11gIfrUc3GaYYkoTUjvH-20" value="name" style="text;strokeColor=none;fillColor=none;align=left;verticalAlign=middle;spacingLeft=4;spacingRight=4;overflow=hidden;points=[[0,0.5],[1,0.5]];portConstraint=eastwest;rotatable=0;whiteSpace=wrap;html=1;labelBackgroundColor=default;labelBorderColor=none;swimlaneLine=1;" parent="11gIfrUc3GaYYkoTUjvH-18" vertex="1">
          <mxGeometry y="60" width="140" height="30" as="geometry" />
        </mxCell>
        <mxCell id="11gIfrUc3GaYYkoTUjvH-21" value="logo" style="text;strokeColor=none;fillColor=none;align=left;verticalAlign=middle;spacingLeft=4;spacingRight=4;overflow=hidden;points=[[0,0.5],[1,0.5]];portConstraint=eastwest;rotatable=0;whiteSpace=wrap;html=1;labelBackgroundColor=default;labelBorderColor=none;swimlaneLine=1;" parent="11gIfrUc3GaYYkoTUjvH-18" vertex="1">
          <mxGeometry y="90" width="140" height="30" as="geometry" />
        </mxCell>
        <mxCell id="11gIfrUc3GaYYkoTUjvH-24" value="play" style="swimlane;fontStyle=0;childLayout=stackLayout;horizontal=1;startSize=30;horizontalStack=0;resizeParent=1;resizeParentMax=0;resizeLast=0;collapsible=1;marginBottom=0;whiteSpace=wrap;html=1;labelBackgroundColor=default;labelBorderColor=none;swimlaneLine=1;rounded=1;" parent="1" vertex="1">
          <mxGeometry x="290" y="-1069" width="140" height="60" as="geometry" />
        </mxCell>
        <mxCell id="11gIfrUc3GaYYkoTUjvH-39" style="edgeStyle=orthogonalEdgeStyle;rounded=0;orthogonalLoop=1;jettySize=auto;html=1;entryX=0.5;entryY=0;entryDx=0;entryDy=0;" parent="1" source="11gIfrUc3GaYYkoTUjvH-32" target="11gIfrUc3GaYYkoTUjvH-18" edge="1">
          <mxGeometry relative="1" as="geometry" />
        </mxCell>
        <mxCell id="11gIfrUc3GaYYkoTUjvH-32" value="confront" style="swimlane;fontStyle=0;childLayout=stackLayout;horizontal=1;startSize=30;horizontalStack=0;resizeParent=1;resizeParentMax=0;resizeLast=0;collapsible=1;marginBottom=0;whiteSpace=wrap;html=1;labelBackgroundColor=default;labelBorderColor=none;swimlaneLine=1;rounded=1;" parent="1" vertex="1">
          <mxGeometry x="50" y="-890" width="140" height="60" as="geometry" />
        </mxCell>
        <mxCell id="11gIfrUc3GaYYkoTUjvH-34" style="edgeStyle=orthogonalEdgeStyle;rounded=0;orthogonalLoop=1;jettySize=auto;html=1;" parent="1" source="11gIfrUc3GaYYkoTUjvH-33" target="11gIfrUc3GaYYkoTUjvH-4" edge="1">
          <mxGeometry relative="1" as="geometry" />
        </mxCell>
        <mxCell id="11gIfrUc3GaYYkoTUjvH-33" value="redact" style="swimlane;fontStyle=0;childLayout=stackLayout;horizontal=1;startSize=30;horizontalStack=0;resizeParent=1;resizeParentMax=0;resizeLast=0;collapsible=1;marginBottom=0;whiteSpace=wrap;html=1;labelBackgroundColor=default;labelBorderColor=none;swimlaneLine=1;rounded=1;" parent="1" vertex="1">
          <mxGeometry x="570" y="-864" width="139" height="60" as="geometry" />
        </mxCell>
        <mxCell id="11gIfrUc3GaYYkoTUjvH-35" style="edgeStyle=orthogonalEdgeStyle;rounded=0;orthogonalLoop=1;jettySize=auto;html=1;entryX=0.493;entryY=0.979;entryDx=0;entryDy=0;entryPerimeter=0;" parent="1" source="11gIfrUc3GaYYkoTUjvH-33" target="11gIfrUc3GaYYkoTUjvH-3" edge="1">
          <mxGeometry relative="1" as="geometry" />
        </mxCell>
        <mxCell id="11gIfrUc3GaYYkoTUjvH-36" style="edgeStyle=orthogonalEdgeStyle;rounded=0;orthogonalLoop=1;jettySize=auto;html=1;entryX=-0.002;entryY=0.04;entryDx=0;entryDy=0;entryPerimeter=0;" parent="1" source="11gIfrUc3GaYYkoTUjvH-24" target="AyH1_v-APNxJxDEJj7M3-44" edge="1">
          <mxGeometry relative="1" as="geometry" />
        </mxCell>
        <mxCell id="11gIfrUc3GaYYkoTUjvH-37" style="edgeStyle=orthogonalEdgeStyle;rounded=0;orthogonalLoop=1;jettySize=auto;html=1;entryX=0.995;entryY=0.056;entryDx=0;entryDy=0;entryPerimeter=0;" parent="1" source="11gIfrUc3GaYYkoTUjvH-24" target="11gIfrUc3GaYYkoTUjvH-14" edge="1">
          <mxGeometry relative="1" as="geometry" />
        </mxCell>
        <mxCell id="11gIfrUc3GaYYkoTUjvH-38" style="edgeStyle=orthogonalEdgeStyle;rounded=0;orthogonalLoop=1;jettySize=auto;html=1;entryX=0.571;entryY=0.989;entryDx=0;entryDy=0;entryPerimeter=0;" parent="1" source="11gIfrUc3GaYYkoTUjvH-32" target="11gIfrUc3GaYYkoTUjvH-16" edge="1">
          <mxGeometry relative="1" as="geometry" />
        </mxCell>
        <mxCell id="11gIfrUc3GaYYkoTUjvH-40" value="1, 1" style="text;html=1;align=center;verticalAlign=middle;resizable=0;points=[];autosize=1;strokeColor=none;fillColor=none;" parent="1" vertex="1">
          <mxGeometry x="642" y="-797" width="40" height="30" as="geometry" />
        </mxCell>
        <mxCell id="11gIfrUc3GaYYkoTUjvH-41" value="0, N" style="text;html=1;align=center;verticalAlign=middle;resizable=0;points=[];autosize=1;strokeColor=none;fillColor=none;" parent="1" vertex="1">
          <mxGeometry x="638" y="-903" width="50" height="30" as="geometry" />
        </mxCell>
        <mxCell id="11gIfrUc3GaYYkoTUjvH-42" value="0, N" style="text;html=1;align=center;verticalAlign=middle;resizable=0;points=[];autosize=1;strokeColor=none;fillColor=none;" parent="1" vertex="1">
          <mxGeometry x="505" y="-1039" width="50" height="30" as="geometry" />
        </mxCell>
        <mxCell id="11gIfrUc3GaYYkoTUjvH-43" value="1, N" style="text;html=1;align=center;verticalAlign=middle;resizable=0;points=[];autosize=1;strokeColor=none;fillColor=none;" parent="1" vertex="1">
          <mxGeometry x="178" y="-1038" width="50" height="30" as="geometry" />
        </mxCell>
        <mxCell id="11gIfrUc3GaYYkoTUjvH-44" value="1, 1" style="text;html=1;align=center;verticalAlign=middle;resizable=0;points=[];autosize=1;strokeColor=none;fillColor=none;" parent="1" vertex="1">
          <mxGeometry x="120" y="-942" width="40" height="30" as="geometry" />
        </mxCell>
        <mxCell id="11gIfrUc3GaYYkoTUjvH-45" value="0, N" style="text;html=1;align=center;verticalAlign=middle;resizable=0;points=[];autosize=1;strokeColor=none;fillColor=none;" parent="1" vertex="1">
          <mxGeometry x="125" y="-792" width="50" height="30" as="geometry" />
        </mxCell>
      </root>
    </mxGraphModel>
  </diagram>
</mxfile>
